<?xml version="1.0" encoding="UTF-8"?>
<svg width="144px" height="104px" viewBox="0 0 144 104" version="1.1" xmlns="http://www.w3.org/2000/svg" xmlns:xlink="http://www.w3.org/1999/xlink">
    <!-- Generator: Sketch 51.2 (57519) - http://www.bohemiancoding.com/sketch -->
    <title>Group 2</title>
    <desc>Created with Sketch.</desc>
    <defs></defs>
    <g id="Blade-extension-logo-Copy" stroke="none" stroke-width="1" fill="none" fill-rule="evenodd">
        <g id="01_Get-Started" transform="translate(-80.000000, -88.000000)">
            <g id="Beta-Application-BG-v1">
                <g id="Group-2" transform="translate(80.000000, 88.000000)">
                    <g id="Group-20">
                        <path d="M25.106663,64.2315261 C24.921454,64.7715089 24.6772002,65.2921886 24.374911,65.792549 C23.5069017,67.2555318 22.3461917,68.4238861 20.902874,69.2879603 C19.4494631,70.1616862 17.878972,70.6036289 16.181812,70.6036289 C14.455382,70.6036289 12.8556207,70.1616862 11.4022099,69.2879603 C9.9588922,68.4238861 8.79818215,67.2555318 7.92966824,65.792549 C7.62737897,65.2921886 7.38362986,64.7715089 7.19842091,64.2315261 L0.487498219,64.2315261 C0.848832303,66.1166403 1.54122108,67.8839032 2.5651692,69.5236631 C4.01858004,71.8608797 5.94990063,73.7058636 8.34954249,75.0804578 C10.7587728,76.455052 13.3628006,77.1428571 16.181812,77.1428571 C19.0886337,77.1428571 21.7612947,76.4260972 24.2093836,74.9824176 C26.6574725,73.5494057 28.5983816,71.5855545 30.0326155,69.091372 C30.9203063,67.5501603 31.5344733,65.9302116 31.8660327,64.2315261 L25.106663,64.2315261 Z M30.0326155,52.9015371 C28.5983816,50.4373255 26.6574725,48.4734743 24.2093836,47.0104915 C21.7612947,45.5475087 19.0886337,44.8210971 16.181812,44.8210971 C14.4942405,44.8210971 12.7486336,45.2239254 10.9535702,46.0285659 C9.14891845,46.8337144 7.79341098,47.8451029 6.88654317,49.0723829 C6.79873293,49.1607714 6.71092269,49.1805826 6.63270093,49.1313086 C6.54489069,49.0921941 6.49644366,49.0332684 6.49644366,48.9448799 L6.43739885,31.14424 C6.43739885,30.7906858 6.30114158,30.4864057 6.03771087,30.2212401 C5.78386863,29.966234 5.48157936,29.8285714 5.13084306,29.8285714 L1.68757148,29.8285714 C1.33633052,29.8285714 1.02394812,29.966234 0.74134046,30.2212401 C0.45822814,30.4864057 0.321970874,30.7906858 0.321970874,31.14424 C0.273019189,32.4502569 0.21447903,35.287326 0.126668792,39.6468115 C0.0388585537,44.006297 0,48.198657 0,52.21424 C0,54.3350571 0.0196816051,56.229823 0.0585401589,57.8792345 L7.12019915,57.8792345 C7.31550123,57.2803259 7.57893195,56.7012285 7.90090282,56.1414344 C8.73964199,54.6586404 9.90035204,53.4902861 11.3729398,52.6363715 C12.8460323,51.7921085 14.4261119,51.3603254 16.1232719,51.3603254 C17.8497019,51.3603254 19.4494631,51.8017601 20.902874,52.675486 C22.3461917,53.5497198 23.5069017,54.7079145 24.374911,56.1708973 C24.6968818,56.7210398 24.9603126,57.2899775 25.1652031,57.8792345 L31.8857143,57.8792345 C31.5637434,56.1216232 30.9394833,54.4722117 30.0326155,52.9015371 Z" id="Fill-1" fill="#FFFFFF"></path>
                        <path d="M34.9714286,64.1708444 L34.9714286,65.4431907 L35.1586615,76.027704 C35.1586615,76.3339245 35.2612283,76.6003364 35.4668459,76.8167323 C35.6729472,77.0341488 35.9254939,77.1428571 36.2152936,77.1428571 L39.8902836,77.1428571 C40.1800833,77.1428571 40.43263,77.0341488 40.6474399,76.8167323 C40.8530574,76.6003364 40.956108,76.3339245 40.956108,76.027704 L41.1428571,65.4431907 L41.1428571,64.1708444 L34.9714286,64.1708444 Z M40.956108,28.8860714 C40.956108,28.5803612 40.8530574,28.3139493 40.6474399,28.0970431 C40.43263,27.8801369 40.1800833,27.7714286 39.8902836,27.7714286 L36.2152936,27.7714286 C35.9254939,27.7714286 35.6729472,27.8801369 35.4668459,28.0970431 C35.2612283,28.3139493 35.1586615,28.5803612 35.1586615,28.8860714 L34.9714286,39.401685 L34.9714286,57.7886978 L41.1428571,57.7886978 L41.1428571,39.401685 L40.956108,28.8860714 Z" id="Fill-4" fill="#FFFFFF"></path>
                        <path d="M141.472131,70.3721291 L138.855537,67.8439429 C138.679104,67.6309639 138.395187,67.5242238 138.012914,67.5242238 C137.660047,67.5242238 137.37613,67.6309639 137.160151,67.8439429 C136.112196,68.7935787 134.8873,69.5487773 133.466197,70.1110419 C132.055234,70.6627828 130.712208,70.9534365 129.448274,70.9534365 C127.018254,70.9534365 124.891924,70.391673 123.079422,69.2681461 C121.354123,68.2027499 120.198178,66.5755903 119.610066,64.40571 L113.250847,64.40571 C113.583434,66.1295872 114.19132,67.737704 115.083121,69.2385796 C116.52349,71.6700482 118.493159,73.5978841 120.991623,75.0115636 C123.500733,76.4357668 126.273481,77.1428571 129.321018,77.1428571 C133.975725,77.1428571 138.032687,75.466587 141.472131,72.1060288 C141.726641,71.8539619 141.864037,71.5537867 141.864037,71.2050023 C141.864037,70.8176311 141.726641,70.5364988 141.472131,70.3721291 M142.314754,52.9379177 C141.187707,50.9619736 139.639856,49.2666607 137.680327,47.872024 C135.719783,46.4678659 133.564047,45.6445141 131.212611,45.3829258 C130.340075,45.2957296 129.693659,45.2571429 129.252574,45.2571429 C126.518866,45.2571429 123.980856,45.7993624 121.648179,46.9033453 C119.316516,47.998308 117.385885,49.5573144 115.866933,51.5818678 C114.436197,53.4701147 113.534763,55.6500175 113.142857,58.1391158 L119.992339,58.1391158 C119.982706,58.1100504 119.982706,58.0709625 119.982706,58.0418971 L120.05115,57.8389406 C120.52164,55.9015833 121.628914,54.2453583 123.343566,52.8697644 C125.068357,51.4946717 127.096838,50.8071253 129.448274,50.8071253 C131.849395,50.8071253 133.721215,51.4851503 135.073366,52.8412002 C136.415378,54.1972501 137.395396,55.8629965 138.012914,57.8389406 C138.051953,57.9451796 138.061586,58.0418971 138.051953,58.1391158 L144,58.1391158 C143.90215,56.4538254 143.343443,54.7199256 142.314754,52.9379177" id="Fill-7" fill="#FFFFFF"></path>
                        <path d="M75.0857143,58.6285714 L68.2598581,58.6285714 C68.063438,58.1002539 67.8176583,57.5819244 67.5321875,57.0940849 C66.6472789,55.5396221 65.4667223,54.3305371 63.9721987,53.4673556 C62.5066802,52.5521308 60.893592,52.095307 59.1329344,52.095307 C57.4119678,52.095307 55.7988797,52.5521308 54.2941789,53.4673556 C52.8383287,54.381529 51.6679493,55.6211039 50.7830407,57.1655786 C50.5077471,57.6323905 50.2813042,58.1307438 50.0945523,58.6285714 L43.2,58.6285714 C43.5444986,56.9111451 44.1541136,55.2757262 45.0293539,53.7412396 C46.4846952,51.1401298 48.4621275,49.0983533 50.9794609,47.5943567 C53.4973032,46.0498821 56.2415884,45.2571429 59.2021394,45.2571429 C62.0736398,45.2571429 64.7192061,45.9889021 67.1485066,47.451895 C69.5681388,48.8644216 71.5155483,50.8052659 72.9713985,53.2639139 C73.9942083,54.9198347 74.7020334,56.7082291 75.0857143,58.6285714" id="Fill-10" fill="#EB1D25"></path>
                        <path d="M110.048609,57.6 L103.026493,57.6 C102.840544,57.1223872 102.626298,56.654357 102.362028,56.1964136 C101.522224,54.714654 100.36004,53.5254133 98.8658762,52.6483609 C97.4207261,51.7702998 95.818934,51.3320258 94.0706056,51.3320258 C92.3126766,51.3320258 90.6911778,51.7702998 89.1970139,52.6483609 C87.7518638,53.5254133 86.5896802,54.6854021 85.7104631,56.1278229 C85.4274966,56.6054357 85.2127453,57.0931353 85.0267959,57.6 L78.1714286,57.6 C78.5226101,55.9427291 79.1284615,54.3535444 79.9970674,52.8622023 C81.4427228,50.3672177 83.4255091,48.388176 85.9156138,46.9457551 C88.4158244,45.5028299 91.1312917,44.7715326 94.0706056,44.7715326 C95.7800261,44.7715326 97.5571564,45.2007285 99.3934065,46.0389465 C101.238752,46.867582 102.6551,47.8913982 103.533812,49.1098907 C103.622239,49.1971421 103.70056,49.2263939 103.739468,49.1875595 C103.826884,49.1386383 103.866297,49.0609695 103.866297,48.9732138 L103.866297,1.30574391 C103.905711,0.955225553 104.061342,0.662202298 104.325613,0.399439619 C104.579272,0.136172597 104.872344,0 105.174512,0 L108.671169,0 C109.062269,0 109.384648,0.136172597 109.647908,0.399439619 C109.911673,0.662202298 110.048609,0.955225553 110.048609,1.30574391 C110.048609,1.81260857 110.06781,56.7229476 110.048609,57.6" id="Fill-12" fill="#EB1D25"></path>
                        <path d="M75.0857143,64.8 L75.0857143,76.8083499 C75.0857143,77.174503 74.969451,77.4801567 74.7083597,77.7542455 C74.4467672,78.0288603 74.1074988,78.1714286 73.7201215,78.1714286 L69.9811536,78.1714286 C69.6714521,78.1714286 69.3903154,78.0288603 69.128723,77.7542455 C68.8676317,77.4801567 68.7223025,77.174503 68.6736924,76.8083499 L68.6736924,73.7986342 C68.6736924,73.707622 68.6155608,73.656592 68.538386,73.5755754 C68.4897759,73.534541 68.4316442,73.5550582 68.3444468,73.6460704 C67.4729731,74.9276064 66.0487475,75.995027 64.227623,76.8593798 C62.3974782,77.7237327 60.6540296,78.1714286 58.95869,78.1714286 C56.0430868,78.1714286 53.3409671,77.4186051 50.8613513,75.9140103 C48.3817355,74.4094155 46.4348262,72.3450694 45.0015802,69.7420152 C44.1396281,68.1758688 43.5387672,66.5287058 43.2,64.8 L49.9703333,64.8 C50.1642726,65.3187169 50.3962981,65.8374339 50.6674121,66.3356336 C51.5393869,67.8402284 52.6919973,69.0302261 54.1257445,69.9450829 C55.6076005,70.8604657 57.2247631,71.3181571 58.95869,71.3181571 C60.7021386,71.3181571 62.2711921,70.8604657 63.7049393,69.9450829 C65.1867954,69.0302261 66.3394058,67.8102417 67.1627705,66.2640865 C67.4338845,65.7864039 67.6568896,65.2981997 67.8408061,64.8 L75.0857143,64.8 Z" id="Fill-14" fill="#EB1D25"></path>
                        <path d="M110.057143,64.8 C109.673578,66.7117823 108.965459,68.5015136 107.933294,70.1686678 C106.478394,72.6296798 104.54124,74.5714488 102.112676,75.9850314 C99.6841116,77.4491179 97.0490127,78.1714286 94.177874,78.1714286 C91.2187291,78.1714286 88.4854499,77.3886184 85.9678622,75.8424631 C83.4609572,74.3273467 81.4647935,72.2735222 80.0098933,69.670468 C79.1349184,68.1353605 78.5254882,66.5187102 78.1714286,64.8 L85.0933959,64.8 C85.2800912,65.2981997 85.4861172,65.7969256 85.7613274,66.2640865 C86.6464764,67.8102417 87.816501,69.0302261 89.2719099,69.9450829 C90.7761546,70.8604657 92.3887538,71.3181571 94.1091987,71.3181571 C95.8693226,71.3181571 97.4814131,70.8604657 98.9373307,69.9450829 C100.441575,69.0812561 101.640596,67.8807367 102.525237,66.3356336 C102.810621,65.8374339 103.036995,65.3287125 103.22369,64.8 L110.057143,64.8 Z" id="Fill-17" fill="#EB1D25"></path>
                    </g>
                    <g id="Group" transform="translate(101.000000, 85.000000)">
                        <g id="Group-4" fill="#EC1D25">
                            <path d="M2.58103701,7.58263093 C2.10422302,7.58263093 1.66073006,7.70984108 1.25490976,7.96180259 C0.849213793,8.20612891 0.530923361,8.53767765 0.295935503,8.95994288 C0.154694123,9.20931619 0.0562230209,9.47486576 2.486644e-05,9.75374458 L1.11267373,9.75374458 C1.14313511,9.67286325 1.17956445,9.59262898 1.22370238,9.51679465 C1.36606275,9.26483313 1.55504769,9.06360039 1.79003555,8.91555521 C2.03198601,8.76725121 2.29208898,8.69335803 2.56972278,8.69335803 C2.85431918,8.69335803 3.11454648,8.76725121 3.34941,8.91555521 C3.59136047,9.05635342 3.7818374,9.25305681 3.9243221,9.50488891 C3.97069801,9.58460555 4.00961399,9.66846331 4.0409457,9.75374458 L5.14228033,9.75374458 C5.08011423,9.44277205 4.96659893,9.15211692 4.80073978,8.88294386 C4.56587625,8.48280775 4.25305644,8.1676941 3.86165867,7.93799113 C3.47013657,7.70104119 3.04380146,7.58263093 2.58103701,7.58263093" id="Fill-33"></path>
                            <path d="M4.973288e-05,10.8081524 C0.0562478873,11.0889724 0.154594658,11.3568513 0.295960369,11.6108834 C0.530823895,12.0331486 0.84923866,12.3675444 1.25493463,12.6120001 C1.6606306,12.8564558 2.10424789,12.979266 2.58106187,12.979266 C2.85857135,12.979266 3.14441107,12.9067964 3.44330568,12.7659982 C3.74232462,12.6253294 3.9754475,12.4521786 4.11768354,12.2447342 C4.13198174,12.229852 4.14192831,12.2254521 4.14901525,12.2329579 C4.1615728,12.2461577 4.17189237,12.2536635 4.17189237,12.2684162 L4.17189237,12.7571983 C4.17885498,12.8164681 4.20309976,12.8666792 4.2457457,12.9111963 C4.28851598,12.955584 4.33538922,12.979266 4.38537076,12.979266 L4.99708519,12.979266 C5.06111627,12.979266 5.11656843,12.955584 5.15933871,12.9111963 C5.20210898,12.8666792 5.22200214,12.8164681 5.22200214,12.7571983 L5.22200214,10.8081524 L4.03525129,10.8081524 C4.00503856,10.8892925 3.9677389,10.9681033 3.92422263,11.0451023 C3.78907353,11.2969344 3.59996425,11.4953202 3.35801379,11.6434947 C3.12302593,11.7916693 2.86590695,11.8655625 2.58118621,11.8655625 C2.29646547,11.8655625 2.03201088,11.7916693 1.78993609,11.6434947 C1.55519689,11.4953202 1.36596328,11.3014638 1.22372725,11.0570081 C1.17847033,10.9769032 1.14079767,10.8927866 1.10996328,10.8081524 L4.973288e-05,10.8081524 Z" id="Fill-35"></path>
                            <path d="M9.98754347,1.29410124e-05 C9.93781059,1.29410124e-05 9.89093735,0.0238244038 9.84816707,0.0680826663 C9.80539679,0.112599749 9.78127635,0.162940287 9.77406508,0.222210124 L9.77406508,8.29351956 C9.77406508,8.30827232 9.76847013,8.32160156 9.75417193,8.32897794 C9.74708499,8.33648373 9.73427878,8.33208378 9.72010491,8.31720162 C9.57774454,8.10975719 9.3474813,7.93660644 9.04846236,7.79580823 C8.74956775,7.65513942 8.46099271,7.58266975 8.18335891,7.58266975 C7.70642059,7.58266975 7.26578728,7.70547996 6.86021564,7.94993569 C6.45439534,8.19439141 6.13312093,8.52878717 5.89825741,8.95105241 C5.75689169,9.20521389 5.65866926,9.47270462 5.60222244,9.75378341 L6.71499563,9.75378341 C6.74595435,9.66876095 6.7805187,9.58542083 6.82589995,9.50492774 C6.96838465,9.26047201 7.1573696,9.06363921 7.39223312,8.91559403 C7.63418358,8.76729003 7.89863817,8.69339685 8.18335891,8.69339685 C8.46807965,8.69339685 8.72818261,8.76729003 8.96317047,8.91559403 C9.20512093,9.06363921 9.39423021,9.26487196 9.52937931,9.51683347 C9.57289558,9.59370308 9.6073356,9.67264326 9.63754832,9.75378341 L10.7786693,9.75378341 C10.7820262,9.60509117 10.7786693,0.307620806 10.7786693,0.222210124 C10.7786693,0.162940287 10.7559165,0.112599749 10.7131462,0.0680826663 C10.6705002,0.0238244038 10.6179077,1.29410124e-05 10.5538766,1.29410124e-05 L9.98754347,1.29410124e-05 Z" id="Fill-47"></path>
                            <path d="M5.6022846,10.8081524 C5.65860709,11.0871606 5.75695386,11.3494749 5.89831957,11.5989777 C6.1331831,12.0212429 6.4544575,12.3556387 6.86015347,12.6002238 C7.26584944,12.8520559 7.70648276,12.979266 8.18342108,12.979266 C8.64593686,12.979266 9.07252064,12.8608558 9.46404274,12.6237764 C9.85544051,12.3942029 10.1682603,12.0789598 10.4029995,11.6789531 C10.5688587,11.4097801 10.6822496,11.1189955 10.7445401,10.8081524 L9.64320544,10.8081524 C9.61199806,10.8933043 9.57581739,10.9772914 9.52944148,11.0570081 C9.38695678,11.3088402 9.19374454,11.5026965 8.95166974,11.6434947 C8.71680622,11.7916693 8.45670325,11.8655625 8.17198252,11.8655625 C7.89447305,11.8655625 7.63437008,11.7916693 7.39217096,11.6434947 C7.15743176,11.4953202 6.96832249,11.2969344 6.82596212,11.0451023 C6.78182419,10.969268 6.74837882,10.8890337 6.71791744,10.8081524 L5.6022846,10.8081524 Z" id="Fill-49"></path>
                        </g>
                        <g id="Group-3" transform="translate(11.267606, 3.605634)" fill="#FFFFFF">
                            <path d="M8.46035593,3.79444546 C7.9725723,3.79444546 7.51887628,3.92048334 7.10371962,4.17012297 C6.68869016,4.41219777 6.36307709,4.74069121 6.12268307,5.15906518 C5.97819228,5.40614046 5.87745573,5.66924293 5.81996468,5.94555182 L6.95821128,5.94555182 C6.98937347,5.86541583 7.02664091,5.78592093 7.07179428,5.71078543 C7.21742981,5.4611458 7.41076257,5.26176746 7.65115659,5.11508655 C7.89867339,4.9681492 8.16476032,4.89493696 8.4487814,4.89493696 C8.73992527,4.89493696 9.00613939,4.9681492 9.24640622,5.11508655 C9.49392303,5.25458728 9.6887821,5.449478 9.83454482,5.69898941 C9.88198766,5.77797144 9.92179895,5.86105644 9.95385148,5.94555182 L11.0805236,5.94555182 C11.0169273,5.63744497 10.9008004,5.34946829 10.7311255,5.08277572 C10.4908587,4.68632695 10.1708421,4.37411714 9.77043975,4.14653094 C9.36991024,3.91176455 8.9337668,3.79444546 8.46035593,3.79444546" id="Fill-37"></path>
                            <path d="M5.81999011,6.99024303 C5.87748117,7.26847518 5.97809052,7.53388558 6.12270851,7.78557669 C6.36310253,8.20395066 6.6887156,8.53526489 7.10374506,8.7774679 C7.51877453,9.01967091 7.97259774,9.14134939 8.46038137,9.14134939 C8.74427526,9.14134939 9.03948929,9.06954755 9.34538751,8.93004682 C9.65115852,8.79067431 9.8751447,8.61911918 10.0207802,8.4135864 C10.0354074,8.39884138 10.0455828,8.39448198 10.0527056,8.4019186 C10.0674599,8.40909879 10.076109,8.42243341 10.076109,8.43705022 L10.0878107,8.92132802 C10.0949335,8.98005168 10.1197361,9.0298001 10.1633631,9.07390695 C10.2071174,9.11788558 10.255069,9.14134939 10.3062004,9.14134939 L10.9349135,9.14134939 C11.0004177,9.14134939 11.0542201,9.11788558 11.0979744,9.07390695 C11.1417286,9.0298001 11.1620795,8.98005168 11.1620795,8.92132802 C11.1693294,8.84785935 11.1620795,6.99024303 11.1620795,6.99024303 L9.94802606,6.99024303 C9.91711826,7.07063545 9.87896048,7.14871996 9.83444307,7.22500942 C9.69618471,7.47452084 9.50577738,7.67107839 9.25800619,7.81788752 C9.01786655,7.96469665 8.75165243,8.03790889 8.46050856,8.03790889 C8.1692375,8.03790889 7.89869883,7.96469665 7.65105483,7.81788752 C7.4109152,7.67107839 7.21745525,7.47900845 7.07181972,7.23680544 C7.02552161,7.15743876 6.98698225,7.07409733 6.95531129,6.99024303 L5.81999011,6.99024303 Z" id="Fill-39"></path>
                            <path d="M13.9149726,3.79444546 C13.4414345,3.79444546 12.8554582,3.98497678 12.5788143,4.36668052 L12.5788143,3.98228422 C12.5714371,3.93086897 12.5510863,3.88689034 12.5147092,3.85022011 C12.4783321,3.81342166 12.4347051,3.79444546 12.3837008,3.79444546 L11.7491369,3.79444546 C11.6981327,3.79444546 11.6500539,3.81342166 11.6064268,3.85022011 C11.5699225,3.88689034 11.551098,3.93535658 11.551098,3.99408023 L11.551098,5.94555182 L12.5788143,5.94555182 C12.6074326,5.61872521 12.7647699,5.35510986 12.9718394,5.15906518 C13.2193562,4.93147897 13.5523465,4.8186475 13.8801218,4.8186475 C14.2077699,4.8186475 14.4986594,4.93147897 14.7389263,5.15906518 C14.9458686,5.35510986 15.0623771,5.61872521 15.0911226,5.94555182 L16.0838608,5.94555182 C16.06351,5.60231336 15.9860497,5.28548771 15.8654711,4.97417542 C15.7549408,4.68850665 15.5141652,4.35988499 15.1259734,4.11729733 C14.7346017,3.87252997 14.3886378,3.79444546 13.9149726,3.79444546" id="Fill-41"></path>
                            <path d="M11.5511108,6.99024303 L11.5745142,8.94184284 C11.5745142,8.99312987 11.5904133,9.04159611 11.6269175,9.08570296 C11.6704174,9.12237319 11.7184962,9.14134939 11.7695005,9.14134939 L12.3807881,9.14134939 C12.4390423,9.14134939 12.4869939,9.12237319 12.5234982,9.08570296 C12.5598753,9.04159611 12.578827,8.99312987 12.578827,8.94184284 L12.578827,6.99024303 L11.5511108,6.99024303 Z" id="Fill-43"></path>
                            <path d="M15.1405751,6.99024303 L15.1405751,8.94184284 C15.1405751,8.99312987 15.1566013,9.04159611 15.1929784,9.08570296 C15.2367327,9.12237319 15.2846843,9.14134939 15.3355613,9.14134939 L15.9469762,9.14134939 C15.9979804,9.14134939 16.0416075,9.12237319 16.0779846,9.08570296 C16.1143616,9.04159611 16.1333133,8.99312987 16.1333133,8.94184284 L16.1333133,6.99024303 L15.1405751,6.99024303 Z" id="Fill-45"></path>
                            <path d="M0.283881172,0.0380806217 C0.218249788,0.0380806217 0.16457451,0.061544439 0.120820254,0.105523069 C0.077193191,0.149629917 0.053789752,0.199506557 0.053789752,0.258230209 C0.0466669662,0.331570665 0.0466669662,5.79825546 0.0499739739,5.94557746 L1.22116347,5.94557746 C1.25207127,5.86518504 1.28743081,5.78697232 1.33182103,5.71081107 C1.47020658,5.46117144 1.66366653,5.2617931 1.91118334,5.11511219 C2.15145017,4.96817484 2.41753709,4.8949626 2.70880816,4.8949626 C2.99995203,4.8949626 3.27049069,4.96817484 3.51813469,5.11511219 C3.75840152,5.2617931 3.95186147,5.45681204 4.09736981,5.69901506 C4.14404949,5.77876639 4.17928185,5.86133851 4.2109528,5.94557746 L5.34919941,5.94557746 C5.29170836,5.66708888 5.19109901,5.40206314 5.04648102,5.15024381 C4.80621419,4.73186984 4.4775485,4.40055561 4.06251904,4.1583526 C3.64748957,3.91614959 3.19659179,3.7944711 2.70880816,3.7944711 C2.42478707,3.7944711 2.12970023,3.86627295 1.82380202,4.00564546 C1.518031,4.14514619 1.28336065,4.31670131 1.13785231,4.52223409 C1.12322516,4.53697912 1.11012432,4.54133851 1.10274715,4.53390189 C1.0882472,4.52659349 1.08239634,4.51338708 1.08239634,4.49877028 L1.08150599,0.258230209 C1.07425601,0.199506557 1.04958064,0.149629917 1.00582639,0.105523069 C0.962072133,0.061544439 0.914120522,0.0380806217 0.863116288,0.0380806217 L0.283753979,0.0380806217 L0.283881172,0.0380806217 Z" id="Fill-51"></path>
                            <path d="M0.0887422794,6.99024303 C0.152465774,7.29822166 0.268465428,7.58632657 0.438140361,7.85301914 C0.678407189,8.24933968 0.998296587,8.56167771 1.3988261,8.7891357 C1.79922841,9.02403031 2.23562623,9.14134939 2.70890991,9.14134939 C3.19682074,9.14134939 3.64746413,9.01531151 4.0624936,8.7658001 C4.47765025,8.52346887 4.80631594,8.19215464 5.04658277,7.77378067 C5.19107357,7.52657717 5.29168292,7.26668014 5.34930117,6.99024303 L4.20812913,6.99024303 C4.17696694,7.07037902 4.14262494,7.14987392 4.09759876,7.22500942 C3.95183603,7.47452084 3.75850327,7.67107839 3.51823645,7.81788752 C3.27059245,7.96469665 3.00450552,8.03790889 2.72048444,8.03790889 C2.42921338,8.03790889 2.16312645,7.96469665 1.92285962,7.81788752 C1.67534282,7.67838679 1.47755832,7.48631685 1.33179559,7.23680544 C1.28435275,7.15782341 1.2473397,7.0746102 1.21541436,6.99024303 L0.0887422794,6.99024303 Z" id="Fill-53"></path>
                            <path d="M16.7379361,3.79444546 C16.6870591,3.79444546 16.643432,3.81342166 16.6069277,3.85022011 C16.5705506,3.88689034 16.5546516,3.93086897 16.5546516,3.98228422 L16.5546516,5.08277572 L16.5546516,5.94555182 L17.5676134,5.94555182 L17.5676134,5.08277572 L17.5676134,3.98228422 C17.5676134,3.93086897 17.5515872,3.88689034 17.5152101,3.85022011 C17.478833,3.81342166 17.4350788,3.79444546 17.3842017,3.79444546 L16.7379361,3.79444546 Z" id="Fill-55"></path>
                            <path d="M19.5909425,3.79444546 C19.4744341,3.79444546 19.3784037,3.84278349 19.3056495,3.93817737 L17.5676898,5.94555182 L18.9553611,5.94555182 L20.4845977,4.11434832 C20.5137248,4.0776781 20.528352,4.03793065 20.528352,3.99408023 C20.528352,3.94253677 20.5094003,3.89855814 20.4730232,3.86188791 C20.4365189,3.81790928 20.3930191,3.79444546 20.3420148,3.79444546 L19.5909425,3.79444546 Z" id="Fill-57"></path>
                            <path d="M16.5546007,6.99024303 L16.5546007,7.18103079 L16.5546007,14.5881605 C16.5546007,14.6394475 16.5704997,14.6834261 16.6068768,14.7200964 C16.6433811,14.7567666 16.6870082,14.7759992 16.7378852,14.7759992 L17.3841508,14.7759992 C17.4351551,14.7759992 17.4789093,14.7567666 17.5152864,14.7200964 C17.5516635,14.6834261 17.5676898,14.6394475 17.5676898,14.5881605 L17.5676898,7.51747373 L18.0040876,6.99024303 L16.5546007,6.99024303 Z" id="Fill-59"></path>
                            <path d="M18.0041385,6.99024303 L19.491656,8.98582147 C19.5717873,9.08852375 19.6735414,9.14134939 19.797427,9.14134939 L20.4873197,9.14134939 C20.5383239,9.14134939 20.581951,9.12237319 20.618328,9.08570296 C20.6619551,9.04890452 20.6824331,9.00492589 20.6824331,8.95363885 C20.6824331,8.90209539 20.667806,8.86260437 20.6386789,8.83324254 L19.3199459,6.99024303 L18.0041385,6.99024303 Z" id="Fill-61"></path>
                        </g>
                    </g>
                    <text id="powered-by" font-family="Montserrat-Regular, Montserrat" font-size="10" font-weight="normal" line-spacing="14" fill="#EEEEEE">
                        <tspan x="39" y="97">powered by</tspan>
                    </text>
                </g>
            </g>
        </g>
    </g>
</svg>