<?xml version="1.0" encoding="UTF-8"?>
<svg width="144px" height="79px" viewBox="0 0 144 79" version="1.1" xmlns="http://www.w3.org/2000/svg" xmlns:xlink="http://www.w3.org/1999/xlink">
    <!-- Generator: Sketch 51.2 (57519) - http://www.bohemiancoding.com/sketch -->
    <title>Group 20</title>
    <desc>Created with Sketch.</desc>
    <defs></defs>
    <g id="Blade-extension-logo-Copy" stroke="none" stroke-width="1" fill="none" fill-rule="evenodd">
        <g id="02_Get-Started" transform="translate(-80.000000, -24.000000)">
            <g id="Beta-Application-BG-v1">
                <g id="Group-2" transform="translate(80.000000, 24.000000)">
                    <g id="Group-20">
                        <path d="M25.106663,64.2315261 C24.921454,64.7715089 24.6772002,65.2921886 24.374911,65.792549 C23.5069017,67.2555318 22.3461917,68.4238861 20.902874,69.2879603 C19.4494631,70.1616862 17.878972,70.6036289 16.181812,70.6036289 C14.455382,70.6036289 12.8556207,70.1616862 11.4022099,69.2879603 C9.9588922,68.4238861 8.79818215,67.2555318 7.92966824,65.792549 C7.62737897,65.2921886 7.38362986,64.7715089 7.19842091,64.2315261 L0.487498219,64.2315261 C0.848832303,66.1166403 1.54122108,67.8839032 2.5651692,69.5236631 C4.01858004,71.8608797 5.94990063,73.7058636 8.34954249,75.0804578 C10.7587728,76.455052 13.3628006,77.1428571 16.181812,77.1428571 C19.0886337,77.1428571 21.7612947,76.4260972 24.2093836,74.9824176 C26.6574725,73.5494057 28.5983816,71.5855545 30.0326155,69.091372 C30.9203063,67.5501603 31.5344733,65.9302116 31.8660327,64.2315261 L25.106663,64.2315261 Z M30.0326155,52.9015371 C28.5983816,50.4373255 26.6574725,48.4734743 24.2093836,47.0104915 C21.7612947,45.5475087 19.0886337,44.8210971 16.181812,44.8210971 C14.4942405,44.8210971 12.7486336,45.2239254 10.9535702,46.0285659 C9.14891845,46.8337144 7.79341098,47.8451029 6.88654317,49.0723829 C6.79873293,49.1607714 6.71092269,49.1805826 6.63270093,49.1313086 C6.54489069,49.0921941 6.49644366,49.0332684 6.49644366,48.9448799 L6.43739885,31.14424 C6.43739885,30.7906858 6.30114158,30.4864057 6.03771087,30.2212401 C5.78386863,29.966234 5.48157936,29.8285714 5.13084306,29.8285714 L1.68757148,29.8285714 C1.33633052,29.8285714 1.02394812,29.966234 0.74134046,30.2212401 C0.45822814,30.4864057 0.321970874,30.7906858 0.321970874,31.14424 C0.273019189,32.4502569 0.21447903,35.287326 0.126668792,39.6468115 C0.0388585537,44.006297 0,48.198657 0,52.21424 C0,54.3350571 0.0196816051,56.229823 0.0585401589,57.8792345 L7.12019915,57.8792345 C7.31550123,57.2803259 7.57893195,56.7012285 7.90090282,56.1414344 C8.73964199,54.6586404 9.90035204,53.4902861 11.3729398,52.6363715 C12.8460323,51.7921085 14.4261119,51.3603254 16.1232719,51.3603254 C17.8497019,51.3603254 19.4494631,51.8017601 20.902874,52.675486 C22.3461917,53.5497198 23.5069017,54.7079145 24.374911,56.1708973 C24.6968818,56.7210398 24.9603126,57.2899775 25.1652031,57.8792345 L31.8857143,57.8792345 C31.5637434,56.1216232 30.9394833,54.4722117 30.0326155,52.9015371 Z" id="Fill-1" fill="#FFFFFF"></path>
                        <path d="M34.9714286,64.1708444 L34.9714286,65.4431907 L35.1586615,76.027704 C35.1586615,76.3339245 35.2612283,76.6003364 35.4668459,76.8167323 C35.6729472,77.0341488 35.9254939,77.1428571 36.2152936,77.1428571 L39.8902836,77.1428571 C40.1800833,77.1428571 40.43263,77.0341488 40.6474399,76.8167323 C40.8530574,76.6003364 40.956108,76.3339245 40.956108,76.027704 L41.1428571,65.4431907 L41.1428571,64.1708444 L34.9714286,64.1708444 Z M40.956108,28.8860714 C40.956108,28.5803612 40.8530574,28.3139493 40.6474399,28.0970431 C40.43263,27.8801369 40.1800833,27.7714286 39.8902836,27.7714286 L36.2152936,27.7714286 C35.9254939,27.7714286 35.6729472,27.8801369 35.4668459,28.0970431 C35.2612283,28.3139493 35.1586615,28.5803612 35.1586615,28.8860714 L34.9714286,39.401685 L34.9714286,57.7886978 L41.1428571,57.7886978 L41.1428571,39.401685 L40.956108,28.8860714 Z" id="Fill-4" fill="#FFFFFF"></path>
                        <path d="M141.472131,70.3721291 L138.855537,67.8439429 C138.679104,67.6309639 138.395187,67.5242238 138.012914,67.5242238 C137.660047,67.5242238 137.37613,67.6309639 137.160151,67.8439429 C136.112196,68.7935787 134.8873,69.5487773 133.466197,70.1110419 C132.055234,70.6627828 130.712208,70.9534365 129.448274,70.9534365 C127.018254,70.9534365 124.891924,70.391673 123.079422,69.2681461 C121.354123,68.2027499 120.198178,66.5755903 119.610066,64.40571 L113.250847,64.40571 C113.583434,66.1295872 114.19132,67.737704 115.083121,69.2385796 C116.52349,71.6700482 118.493159,73.5978841 120.991623,75.0115636 C123.500733,76.4357668 126.273481,77.1428571 129.321018,77.1428571 C133.975725,77.1428571 138.032687,75.466587 141.472131,72.1060288 C141.726641,71.8539619 141.864037,71.5537867 141.864037,71.2050023 C141.864037,70.8176311 141.726641,70.5364988 141.472131,70.3721291 M142.314754,52.9379177 C141.187707,50.9619736 139.639856,49.2666607 137.680327,47.872024 C135.719783,46.4678659 133.564047,45.6445141 131.212611,45.3829258 C130.340075,45.2957296 129.693659,45.2571429 129.252574,45.2571429 C126.518866,45.2571429 123.980856,45.7993624 121.648179,46.9033453 C119.316516,47.998308 117.385885,49.5573144 115.866933,51.5818678 C114.436197,53.4701147 113.534763,55.6500175 113.142857,58.1391158 L119.992339,58.1391158 C119.982706,58.1100504 119.982706,58.0709625 119.982706,58.0418971 L120.05115,57.8389406 C120.52164,55.9015833 121.628914,54.2453583 123.343566,52.8697644 C125.068357,51.4946717 127.096838,50.8071253 129.448274,50.8071253 C131.849395,50.8071253 133.721215,51.4851503 135.073366,52.8412002 C136.415378,54.1972501 137.395396,55.8629965 138.012914,57.8389406 C138.051953,57.9451796 138.061586,58.0418971 138.051953,58.1391158 L144,58.1391158 C143.90215,56.4538254 143.343443,54.7199256 142.314754,52.9379177" id="Fill-7" fill="#FFFFFF"></path>
                        <path d="M75.0857143,58.6285714 L68.2598581,58.6285714 C68.063438,58.1002539 67.8176583,57.5819244 67.5321875,57.0940849 C66.6472789,55.5396221 65.4667223,54.3305371 63.9721987,53.4673556 C62.5066802,52.5521308 60.893592,52.095307 59.1329344,52.095307 C57.4119678,52.095307 55.7988797,52.5521308 54.2941789,53.4673556 C52.8383287,54.381529 51.6679493,55.6211039 50.7830407,57.1655786 C50.5077471,57.6323905 50.2813042,58.1307438 50.0945523,58.6285714 L43.2,58.6285714 C43.5444986,56.9111451 44.1541136,55.2757262 45.0293539,53.7412396 C46.4846952,51.1401298 48.4621275,49.0983533 50.9794609,47.5943567 C53.4973032,46.0498821 56.2415884,45.2571429 59.2021394,45.2571429 C62.0736398,45.2571429 64.7192061,45.9889021 67.1485066,47.451895 C69.5681388,48.8644216 71.5155483,50.8052659 72.9713985,53.2639139 C73.9942083,54.9198347 74.7020334,56.7082291 75.0857143,58.6285714" id="Fill-10" fill="#EB1D25"></path>
                        <path d="M110.048609,57.6 L103.026493,57.6 C102.840544,57.1223872 102.626298,56.654357 102.362028,56.1964136 C101.522224,54.714654 100.36004,53.5254133 98.8658762,52.6483609 C97.4207261,51.7702998 95.818934,51.3320258 94.0706056,51.3320258 C92.3126766,51.3320258 90.6911778,51.7702998 89.1970139,52.6483609 C87.7518638,53.5254133 86.5896802,54.6854021 85.7104631,56.1278229 C85.4274966,56.6054357 85.2127453,57.0931353 85.0267959,57.6 L78.1714286,57.6 C78.5226101,55.9427291 79.1284615,54.3535444 79.9970674,52.8622023 C81.4427228,50.3672177 83.4255091,48.388176 85.9156138,46.9457551 C88.4158244,45.5028299 91.1312917,44.7715326 94.0706056,44.7715326 C95.7800261,44.7715326 97.5571564,45.2007285 99.3934065,46.0389465 C101.238752,46.867582 102.6551,47.8913982 103.533812,49.1098907 C103.622239,49.1971421 103.70056,49.2263939 103.739468,49.1875595 C103.826884,49.1386383 103.866297,49.0609695 103.866297,48.9732138 L103.866297,1.30574391 C103.905711,0.955225553 104.061342,0.662202298 104.325613,0.399439619 C104.579272,0.136172597 104.872344,0 105.174512,0 L108.671169,0 C109.062269,0 109.384648,0.136172597 109.647908,0.399439619 C109.911673,0.662202298 110.048609,0.955225553 110.048609,1.30574391 C110.048609,1.81260857 110.06781,56.7229476 110.048609,57.6" id="Fill-12" fill="#EB1D25"></path>
                        <path d="M75.0857143,64.8 L75.0857143,76.8083499 C75.0857143,77.174503 74.969451,77.4801567 74.7083597,77.7542455 C74.4467672,78.0288603 74.1074988,78.1714286 73.7201215,78.1714286 L69.9811536,78.1714286 C69.6714521,78.1714286 69.3903154,78.0288603 69.128723,77.7542455 C68.8676317,77.4801567 68.7223025,77.174503 68.6736924,76.8083499 L68.6736924,73.7986342 C68.6736924,73.707622 68.6155608,73.656592 68.538386,73.5755754 C68.4897759,73.534541 68.4316442,73.5550582 68.3444468,73.6460704 C67.4729731,74.9276064 66.0487475,75.995027 64.227623,76.8593798 C62.3974782,77.7237327 60.6540296,78.1714286 58.95869,78.1714286 C56.0430868,78.1714286 53.3409671,77.4186051 50.8613513,75.9140103 C48.3817355,74.4094155 46.4348262,72.3450694 45.0015802,69.7420152 C44.1396281,68.1758688 43.5387672,66.5287058 43.2,64.8 L49.9703333,64.8 C50.1642726,65.3187169 50.3962981,65.8374339 50.6674121,66.3356336 C51.5393869,67.8402284 52.6919973,69.0302261 54.1257445,69.9450829 C55.6076005,70.8604657 57.2247631,71.3181571 58.95869,71.3181571 C60.7021386,71.3181571 62.2711921,70.8604657 63.7049393,69.9450829 C65.1867954,69.0302261 66.3394058,67.8102417 67.1627705,66.2640865 C67.4338845,65.7864039 67.6568896,65.2981997 67.8408061,64.8 L75.0857143,64.8 Z" id="Fill-14" fill="#EB1D25"></path>
                        <path d="M110.057143,64.8 C109.673578,66.7117823 108.965459,68.5015136 107.933294,70.1686678 C106.478394,72.6296798 104.54124,74.5714488 102.112676,75.9850314 C99.6841116,77.4491179 97.0490127,78.1714286 94.177874,78.1714286 C91.2187291,78.1714286 88.4854499,77.3886184 85.9678622,75.8424631 C83.4609572,74.3273467 81.4647935,72.2735222 80.0098933,69.670468 C79.1349184,68.1353605 78.5254882,66.5187102 78.1714286,64.8 L85.0933959,64.8 C85.2800912,65.2981997 85.4861172,65.7969256 85.7613274,66.2640865 C86.6464764,67.8102417 87.816501,69.0302261 89.2719099,69.9450829 C90.7761546,70.8604657 92.3887538,71.3181571 94.1091987,71.3181571 C95.8693226,71.3181571 97.4814131,70.8604657 98.9373307,69.9450829 C100.441575,69.0812561 101.640596,67.8807367 102.525237,66.3356336 C102.810621,65.8374339 103.036995,65.3287125 103.22369,64.8 L110.057143,64.8 Z" id="Fill-17" fill="#EB1D25"></path>
                    </g>
                </g>
            </g>
        </g>
    </g>
</svg>