<?xml version="1.0" encoding="UTF-8"?>
<svg width="20px" height="20px" viewBox="0 0 20 20" version="1.1" xmlns="http://www.w3.org/2000/svg" xmlns:xlink="http://www.w3.org/1999/xlink">
    <!-- Generator: Sketch 51.2 (57519) - http://www.bohemiancoding.com/sketch -->
    <title>pending</title>
    <desc>Created with Sketch.</desc>
    <defs></defs>
    <g id="referral-explorations" stroke="none" stroke-width="1" fill="none" fill-rule="evenodd">
        <g id="01_referrals" transform="translate(-26.000000, -232.000000)">
            <g id="Beta-Application-BG-v1" transform="translate(-400.000000, -269.000000)">
                <g id="Group-5" transform="translate(400.000000, 467.000000)">
                    <g id="Group" transform="translate(24.000000, 32.000000)">
                        <g id="pending">
                            <rect id="Rectangle-3" fill-rule="nonzero" x="0" y="0" width="24" height="24"></rect>
                            <path d="M17.6097561,9.5 C17.6097561,9.87760605 17.5707321,10.3137996 17.4926829,10.8085938 C17.4146338,11.3033879 17.2845538,11.8079401 17.102439,12.3222656 C16.9203243,12.8365911 16.6829283,13.3313778 16.3902439,13.8066406 C16.0975595,14.2819034 15.7300835,14.6888004 15.2878049,15.0273438 L15.6780488,15.3203125 L15.1317073,16.3359375 L14.7804878,16.1796875 C14.5853649,16.0885412 14.4227649,15.955079 14.2926829,15.7792969 C14.162601,15.6035147 14.084553,15.404949 14.0585366,15.1835938 C14.0325202,14.9622385 14.0617882,14.7539072 14.1463415,14.5585938 C14.2308947,14.3632803 14.3577227,14.1940111 14.5268293,14.0507812 C15.1902472,13.5299453 15.6617872,12.7910204 15.9414634,11.8339844 C16.2211396,10.8769483 16.3609756,10.0989613 16.3609756,9.5 L16.3609756,6.375 C16.3609756,6.03645664 16.2341476,5.68489766 15.9804878,5.3203125 C15.726828,4.95572734 15.391872,4.62044424 14.9756098,4.31445312 C14.5593475,4.00846201 14.0910595,3.7545583 13.5707317,3.55273438 C13.0504039,3.35091045 12.5235799,3.25 11.9902439,3.25 C11.4699161,3.25 10.9495961,3.35091045 10.4292683,3.55273438 C9.90894049,3.7545583 9.44065249,4.01171719 9.02439024,4.32421875 C8.608128,4.63672031 8.26992,4.97525859 8.0097561,5.33984375 C7.7495922,5.70442891 7.6195122,6.04947754 7.6195122,6.375 L7.6195122,9.5 C7.6195122,10.1119822 7.7756082,10.8932244 8.08780488,11.84375 C8.40000156,12.7942756 8.88129756,13.5299453 9.53170732,14.0507812 C9.70081385,14.1809902 9.82438985,14.3470042 9.90243902,14.5488281 C9.9804882,14.7506521 10.0065042,14.9622385 9.9804878,15.1835938 C9.95447141,15.3919281 9.87642341,15.5839835 9.74634146,15.7597656 C9.61625951,15.9355478 9.45365951,16.06901 9.25853659,16.1601562 L3.77560976,18.7578125 C3.69756059,18.7838543 3.59024459,18.8489578 3.45365854,18.953125 C3.31707249,19.0572922 3.24878049,19.2330717 3.24878049,19.4804688 L3.24878049,20.75 L15.1121951,20.75 L15.1121951,22 L3.24878049,22 C2.91056741,22 2.61788741,21.8763033 2.37073171,21.6289062 C2.123576,21.3815092 2,21.0885434 2,20.75 L2,18.875 C2,18.5234357 2.208128,18.2272147 2.62439024,17.9863281 L3.24878049,17.625 L8.73170732,15.0273438 C8.30243688,14.6757795 7.93821288,14.2526066 7.63902439,13.7578125 C7.3398359,13.2630184 7.0959359,12.7584661 6.90731707,12.2441406 C6.71869824,11.7298151 6.58211424,11.2285181 6.49756098,10.7402344 C6.41300771,10.2519507 6.37073171,9.83854336 6.37073171,9.5 L6.37073171,6.375 C6.37073171,5.85416406 6.53333171,5.33333594 6.85853659,4.8125 C7.18374146,4.29166406 7.61300546,3.82291875 8.14634146,3.40625 C8.67967746,2.98958125 9.28129746,2.65104297 9.95121951,2.390625 C10.6211416,2.13020703 11.3008096,2 11.9902439,2 C12.6796782,2 13.3593462,2.13020703 14.0292683,2.390625 C14.6991903,2.65104297 15.3008103,2.98958125 15.8341463,3.40625 C16.3674823,3.82291875 16.7967463,4.29166406 17.1219512,4.8125 C17.4471561,5.33333594 17.6097561,5.85416406 17.6097561,6.375 L17.6097561,9.5 Z M15,19.6 C14.4477153,19.6 14,19.1522847 14,18.6 C14,18.0477153 14.4477153,17.6 15,17.6 C15.5522847,17.6 16,18.0477153 16,18.6 C16,19.1522847 15.5522847,19.6 15,19.6 Z M18,19.6 C17.4477153,19.6 17,19.1522847 17,18.6 C17,18.0477153 17.4477153,17.6 18,17.6 C18.5522847,17.6 19,18.0477153 19,18.6 C19,19.1522847 18.5522847,19.6 18,19.6 Z M21,19.6 C20.4477153,19.6 20,19.1522847 20,18.6 C20,18.0477153 20.4477153,17.6 21,17.6 C21.5522847,17.6 22,18.0477153 22,18.6 C22,19.1522847 21.5522847,19.6 21,19.6 Z" id="Combined-Shape" fill="#F9A937"></path>
                        </g>
                    </g>
                </g>
            </g>
        </g>
    </g>
</svg>